<svg xmlns="http://www.w3.org/2000/svg" version="1.1" xmlns:xlink="http://www.w3.org/1999/xlink" xmlns:svgjs="http://svgjs.com/svgjs" width="512" height="512" x="0" y="0" viewBox="0 0 512 512" style="enable-background:new 0 0 512 512" xml:space="preserve"><g><path d="M464 48h-52.686l-29.657-29.657A8 8 0 0 0 376 16H152a32.036 32.036 0 0 0-32 32v112h16V48a16.019 16.019 0 0 1 16-16h216v48a32.036 32.036 0 0 0 32 32h48v304a16.019 16.019 0 0 1-16 16H288v16h144a32.036 32.036 0 0 0 32-32V104a8 8 0 0 0-2.343-5.657L427.314 64H464a16.019 16.019 0 0 1 16 16v368a16.019 16.019 0 0 1-16 16H288v16h176a32.036 32.036 0 0 0 32-32V80a32.036 32.036 0 0 0-32-32Zm-80 32V43.313L436.687 96H400a16.019 16.019 0 0 1-16-16ZM136 256v48h-16v-48Zm40-192h-16V48h16Zm32 0h-16V48h16Zm32 0h-16V48h16Zm32 280v128a24.027 24.027 0 0 1-24 24H40a24.027 24.027 0 0 1-24-24v-96h16v96a8.009 8.009 0 0 0 8 8h208a8.009 8.009 0 0 0 8-8V344a8.009 8.009 0 0 0-8-8H40a8.009 8.009 0 0 0-8 8v16H16v-16a24.027 24.027 0 0 1 24-24h144v-48a40 40 0 0 0-80 0v24a8 8 0 0 1-8 8H56a8 8 0 0 1-8-8v-24a95.121 95.121 0 0 1 30.109-69.818l10.985 11.635A79.265 79.265 0 0 0 64 272v16h24v-16a56 56 0 0 1 112 0v48h24v-48a80.015 80.015 0 0 0-123.631-67.067l-8.738-13.4A96.014 96.014 0 0 1 240 272v48h8a24.027 24.027 0 0 1 24 24Zm-120 96v-17.376a24 24 0 1 0-16 0V440Zm-8-48a8 8 0 1 1-8 8 8.009 8.009 0 0 1 8-8Zm16-264a24 24 0 0 0 48 0v-16a24 24 0 0 0-48 0Zm16-16a8 8 0 0 1 16 0v16a8 8 0 0 1-16 0Zm48-24h16v64h-16Zm56 0a24.027 24.027 0 0 0-24 24v16a24 24 0 0 0 48 0v-16a24.027 24.027 0 0 0-24-24Zm8 40a8 8 0 0 1-16 0v-16a8 8 0 0 1 16 0Zm56-40a24.027 24.027 0 0 0-24 24v16a24 24 0 0 0 48 0v-16a24.027 24.027 0 0 0-24-24Zm8 40a8 8 0 0 1-16 0v-16a8 8 0 0 1 16 0Zm-104 64v16a24 24 0 0 0 48 0v-16a24 24 0 0 0-48 0Zm16 0a8 8 0 0 1 16 0v16a8 8 0 0 1-16 0Zm48-24h16v64h-16Zm56 0a24.027 24.027 0 0 0-24 24v16a24 24 0 0 0 48 0v-16a24.027 24.027 0 0 0-24-24Zm8 40a8 8 0 0 1-16 0v-16a8 8 0 0 1 16 0Zm48-40v64h-16v-64Zm-160 80h16v64h-16Zm32 24v16a24 24 0 0 0 48 0v-16a24 24 0 0 0-48 0Zm16 0a8 8 0 0 1 16 0v16a8 8 0 0 1-16 0Zm96 0a24 24 0 0 0-48 0v16a24 24 0 0 0 48 0Zm-16 16a8 8 0 0 1-16 0v-16a8 8 0 0 1 16 0Zm-96 48h16v64h-16Zm96 0h16v64h-16Zm-64 24v16a24 24 0 0 0 48 0v-16a24 24 0 0 0-48 0Zm32 0v16a8 8 0 0 1-16 0v-16a8 8 0 0 1 16 0Z" fill="#ffffff" data-original="#000000"></path></g></svg>