<?xml version="1.0" encoding="UTF-8" standalone="no"?>
<!-- Created with Inkscape (http://www.inkscape.org/) -->

<svg
        xmlns:inkscape="http://www.inkscape.org/namespaces/inkscape"
        xmlns:sodipodi="http://sodipodi.sourceforge.net/DTD/sodipodi-0.dtd"
        version="1.1"
        id="svg21"
        xml:space="preserve"
        width="133.10608"
        height="114.02533"
        viewBox="0 0 133.10608 114.02533"
        sodipodi:docname="swytch_style_options.pdf"
        inkscape:version="1.1.2 (b8e25be833, 2022-02-05)"
        xmlns="http://www.w3.org/2000/svg"
><defs
     id="defs25"><linearGradient
       x1="0"
       y1="0"
       x2="1"
       y2="0"
       gradientUnits="userSpaceOnUse"
       gradientTransform="matrix(-227.41455,131.29785,131.29785,227.41455,611.99976,542.24548)"
       spreadMethod="pad"
       id="linearGradient49"><stop
         style="stop-opacity:1;stop-color:#b75bfe"
         offset="0"
         id="stop41" /><stop
        style="stop-opacity:1;stop-color:#b75bfe"
        offset="0.1246161"
        id="stop43"/><stop
        style="stop-opacity:1;stop-color:#6d15fc"
        offset="0.976459"
        id="stop45"/><stop
        style="stop-opacity:1;stop-color:#6d15fc"
        offset="1"
        id="stop47"/></linearGradient><clipPath
        clipPathUnits="userSpaceOnUse"
        id="clipPath65"><path
         d="m 543.911,480.187 c 0,-4.717 3.824,-8.54 8.54,-8.54 v 0 c 4.717,0 8.541,3.823 8.541,8.54 v 0 c 0,4.716 -3.824,8.54 -8.541,8.54 v 0 c -4.716,0 -8.54,-3.824 -8.54,-8.54"
         id="path63" /></clipPath><clipPath
        clipPathUnits="userSpaceOnUse"
        id="clipPath81"><path
         d="M 0,792 H 612 V 0 H 0 Z"
         id="path79" /></clipPath><linearGradient
        x1="0"
        y1="0"
        x2="1"
        y2="0"
        gradientUnits="userSpaceOnUse"
        gradientTransform="matrix(50.760166,-87.919182,-87.919182,-50.760166,473.99844,651.22699)"
        spreadMethod="pad"
        id="linearGradient115"><stop
         style="stop-opacity:1;stop-color:#b75bfe"
         offset="0"
         id="stop107" />
    <stop
            style="stop-opacity:1;stop-color:#b75bfe"
            offset="0.1246161"
            id="stop109"/>
    <stop
            style="stop-opacity:1;stop-color:#6d15fc"
            offset="0.976459"
            id="stop111"/>
    <stop
            style="stop-opacity:1;stop-color:#6d15fc"
            offset="1"
            id="stop113"/></linearGradient><linearGradient
        x1="0"
        y1="0"
        x2="1"
        y2="0"
        gradientUnits="userSpaceOnUse"
        gradientTransform="matrix(102.90472,0,0,-102.90472,447.92618,330.00095)"
        spreadMethod="pad"
        id="linearGradient139"><stop
         style="stop-opacity:1;stop-color:#b75bfe"
         offset="0"
         id="stop131" />
    <stop
            style="stop-opacity:1;stop-color:#b75bfe"
            offset="0.1246161"
            id="stop133"/>
    <stop
            style="stop-opacity:1;stop-color:#6d15fc"
            offset="0.976459"
            id="stop135"/>
    <stop
            style="stop-opacity:1;stop-color:#6d15fc"
            offset="1"
            id="stop137"/></linearGradient><clipPath
        clipPathUnits="userSpaceOnUse"
        id="clipPath149"><path
         d="M 0,792 H 612 V 0 H 0 Z"
         id="path147" /></clipPath><linearGradient
        x1="0"
        y1="0"
        x2="1"
        y2="0"
        gradientUnits="userSpaceOnUse"
        gradientTransform="matrix(77.017143,0,0,-77.017143,35.874283,719.35193)"
        spreadMethod="pad"
        id="linearGradient211"><stop
         style="stop-opacity:1;stop-color:#b75bfe"
         offset="0"
         id="stop203" />
    <stop
            style="stop-opacity:1;stop-color:#b75bfe"
            offset="0.1246161"
            id="stop205"/>
    <stop
            style="stop-opacity:1;stop-color:#6d15fc"
            offset="0.976459"
            id="stop207"/>
    <stop
            style="stop-opacity:1;stop-color:#6d15fc"
            offset="1"
            id="stop209"/></linearGradient><linearGradient
        x1="0"
        y1="0"
        x2="1"
        y2="0"
        gradientUnits="userSpaceOnUse"
        gradientTransform="matrix(77.017075,0,0,-77.017075,58.685936,687.33942)"
        spreadMethod="pad"
        id="linearGradient235"><stop
         style="stop-opacity:1;stop-color:#b75bfe"
         offset="0"
         id="stop227" />
    <stop
            style="stop-opacity:1;stop-color:#b75bfe"
            offset="0.1246161"
            id="stop229"/>
    <stop
            style="stop-opacity:1;stop-color:#6d15fc"
            offset="0.976459"
            id="stop231"/>
    <stop
            style="stop-opacity:1;stop-color:#6d15fc"
            offset="1"
            id="stop233"/></linearGradient><clipPath
        clipPathUnits="userSpaceOnUse"
        id="clipPath245"><path
         d="M 0,792 H 612 V 0 H 0 Z"
         id="path243" /></clipPath><linearGradient
        x1="0"
        y1="0"
        x2="1"
        y2="0"
        gradientUnits="userSpaceOnUse"
        gradientTransform="matrix(65.429169,0,0,-65.429169,86.643662,522.12604)"
        spreadMethod="pad"
        id="linearGradient295"><stop
         style="stop-opacity:1;stop-color:#b75bfe"
         offset="0"
         id="stop287" />
    <stop
            style="stop-opacity:1;stop-color:#b75bfe"
            offset="0.1246161"
            id="stop289"/>
    <stop
            style="stop-opacity:1;stop-color:#6d15fc"
            offset="0.976459"
            id="stop291"/>
    <stop
            style="stop-opacity:1;stop-color:#6d15fc"
            offset="1"
            id="stop293"/></linearGradient><linearGradient
        x1="0"
        y1="0"
        x2="1"
        y2="0"
        gradientUnits="userSpaceOnUse"
        gradientTransform="matrix(65.429115,0,0,-65.429115,106.02309,494.93011)"
        spreadMethod="pad"
        id="linearGradient319"><stop
         style="stop-opacity:1;stop-color:#b75bfe"
         offset="0"
         id="stop311" />
    <stop
            style="stop-opacity:1;stop-color:#b75bfe"
            offset="0.1246161"
            id="stop313"/>
    <stop
            style="stop-opacity:1;stop-color:#6d15fc"
            offset="0.976459"
            id="stop315"/>
    <stop
            style="stop-opacity:1;stop-color:#6d15fc"
            offset="1"
            id="stop317"/></linearGradient><clipPath
        clipPathUnits="userSpaceOnUse"
        id="clipPath329"><path
         d="M 0,792 H 612 V 0 H 0 Z"
         id="path327" /></clipPath></defs>
    <sodipodi:namedview
            id="namedview23"
            pagecolor="#ffffff"
            bordercolor="#666666"
            borderopacity="1.0"
            inkscape:pageshadow="2"
            inkscape:pageopacity="0.0"
            inkscape:pagecheckerboard="0"
            showgrid="false"
            fit-margin-top="0"
            fit-margin-left="0"
            fit-margin-right="0"
            fit-margin-bottom="0"
            inkscape:zoom="0.75"
            inkscape:cx="-23.333333"
            inkscape:cy="465.33333"
            inkscape:window-width="1920"
            inkscape:window-height="1001"
            inkscape:window-x="-7"
            inkscape:window-y="-7"
            inkscape:window-maximized="1"
            inkscape:current-layer="g27"/>
    <g
            id="g27"
            inkscape:groupmode="layer"
            inkscape:label="swytch_style_options"
            transform="matrix(1.3333333,0,0,-1.3333333,-47.831641,994.80664)"><g
       id="g29"><g
         id="g31"><g
           id="g37"><g
             id="g39"><path
               d="m 448.902,755.497 c -13.458,0 -24.468,-11.012 -24.468,-24.468 v 0 -247.522 c 0,-13.459 11.01,-24.469 24.468,-24.469 v 0 h 100.954 c 13.457,0 24.467,11.01 24.467,24.469 v 0 247.522 c 0,13.456 -11.01,24.468 -24.467,24.468 v 0 z"
               style="fill:url(#linearGradient49);stroke:none"
               id="path51" /></g></g></g></g>
        <text
                transform="matrix(1,0,0,-1,491.8564,476.3511)"
                style="font-variant:normal;font-weight:bold;font-stretch:normal;font-size:10.2104px;font-family:Helvetica;-inkscape-font-specification:Helvetica-Bold;writing-mode:lr-tb;fill:#dfbefa;fill-opacity:1;fill-rule:nonzero;stroke:none"
                id="text57"><tspan
         x="0 5.6769824 13.048891 18.725874 24.402857 31.774765 38.013321"
         y="0"
         sodipodi:role="line"
         id="tspan53">#B75BFE</tspan>
            <tspan
                    x="-29.150692 -23.473709 -17.796728 -10.424818 -4.7478361 0.92914641 7.1677008"
                    y="-253.53444"
                    sodipodi:role="line"
                    id="tspan55">#6D15FC</tspan></text>
        <g
                id="g59"><g
         id="g61"
         clip-path="url(#clipPath65)"><g
           id="g67"
           transform="translate(543.9111,488.7266)"><path
             d="M 0,0 V -17.08 Z"
             style="fill:#b75bfe;fill-opacity:1;fill-rule:nonzero;stroke:none"
             id="path69" /></g><path
                d="m 560.59,471.646 h -16.679 v 17.08 h 16.679 z"
                style="fill:#b75bfe;fill-opacity:1;fill-rule:nonzero;stroke:none"
                id="path71"/><path
                d="m 560.59,488.727 h 0.401 v -17.08 h -0.401 z"
                style="fill:#b75bfe;fill-opacity:1;fill-rule:nonzero;stroke:none"
                id="path73"/></g></g>
        <g
                id="g75"><g
         id="g77"
         clip-path="url(#clipPath81)"><g
           id="g83"
           transform="translate(552.4512,487.9214)"><path
             d="m 0,0 c -4.265,0 -7.734,-3.47 -7.734,-7.735 0,-4.265 3.469,-7.734 7.734,-7.734 4.266,0 7.735,3.469 7.735,7.734 C 7.735,-3.47 4.266,0 0,0 m 0,-17.08 c -5.152,0 -9.345,4.193 -9.345,9.345 0,5.153 4.193,9.345 9.345,9.345 5.153,0 9.346,-4.192 9.346,-9.345 0,-5.152 -4.193,-9.345 -9.346,-9.345"
             style="fill:#dfbefa;fill-opacity:1;fill-rule:nonzero;stroke:none"
             id="path85" /></g><g
                id="g87"
                transform="translate(454.6963,734.6401)"><path
             d="m 0,0 c 0,-4.717 -3.824,-8.54 -8.54,-8.54 -4.717,0 -8.54,3.823 -8.54,8.54 0,4.716 3.823,8.54 8.54,8.54 C -3.824,8.54 0,4.716 0,0"
             style="fill:#6d15fc;fill-opacity:1;fill-rule:nonzero;stroke:none"
             id="path89" /></g><g
                id="g91"
                transform="translate(446.1562,742.375)"><path
             d="m 0,0 c -4.266,0 -7.735,-3.47 -7.735,-7.735 0,-4.265 3.469,-7.735 7.735,-7.735 4.265,0 7.734,3.47 7.734,7.735 C 7.734,-3.47 4.265,0 0,0 m 0,-17.08 c -5.153,0 -9.346,4.192 -9.346,9.345 0,5.153 4.193,9.345 9.346,9.345 5.152,0 9.345,-4.192 9.345,-9.345 0,-5.153 -4.193,-9.345 -9.345,-9.345"
             style="fill:#dfbefa;fill-opacity:1;fill-rule:nonzero;stroke:none"
             id="path93" /></g></g></g>
        <g
                id="g95"><g
         id="g97"><g
           id="g103"><g
             id="g105"><path
               d="m 448.627,607.268 c 0,-28.03 22.723,-50.752 50.752,-50.752 v 0 c 28.029,0 50.75,22.722 50.75,50.752 v 0 c 0,28.029 -22.721,50.751 -50.75,50.751 v 0 c -28.029,0 -50.752,-22.722 -50.752,-50.751"
               style="fill:url(#linearGradient115);stroke:none"
               id="path117" /></g></g></g></g>
        <g
                id="g555"
                transform="translate(2,-5.0000001)"><g
         id="g127"><g
           id="g129"><path
             d="m 459.926,381.453 c -6.6,0 -12,-5.4 -12,-12 v 0 -78.904 c 0,-6.601 5.4,-12 12,-12 v 0 h 78.905 c 6.6,0 12,5.399 12,12 v 0 78.904 c 0,6.6 -5.4,12 -12,12 v 0 z"
             style="fill:url(#linearGradient139);stroke:none"
             id="path141" /></g></g>
            <g
                    id="g151"
                    transform="translate(505.4727,361.998)"><path
           d="m 0,0 c -1.098,0 -2.258,-0.065 -3.479,-0.208 -12.305,-1.436 -18.527,-7.98 -20.678,-14.448 3.178,0.442 6.424,0.79 9.617,1.131 10.603,1.133 20.618,2.204 26.287,6.351 1.111,0.814 0.995,1.577 0.771,2.151 C 11.641,-2.788 7.174,0 0,0 m -29.197,-19.689 c -1.242,-0.245 -2.453,-0.514 -3.623,-0.816 -7.584,-1.956 -11.145,-5.187 -11.309,-7.522 -0.082,-1.162 0.094,-2.91 2.552,-4.655 5.56,-3.946 17.611,-4.495 24.464,-4.13 -5.056,2.464 -12.283,7.113 -12.084,17.123 m 8.372,-21.393 c -7.596,0 -17.296,1.182 -22.676,4.694 -4.246,2.772 -4.935,6.235 -4.765,8.652 0.338,4.802 5.725,9.007 14.411,11.247 1.678,0.432 3.423,0.801 5.211,1.123 0.902,3.794 2.874,7.479 5.652,10.461 4.509,4.841 11.09,7.889 19.032,8.816 10.94,1.276 18.512,-2.766 20.338,-7.419 1.033,-2.635 0.218,-5.256 -2.182,-7.013 -6.568,-4.805 -17.122,-5.933 -28.296,-7.127 -3.64,-0.39 -7.352,-0.787 -10.916,-1.324 -0.001,-0.007 -0.001,-0.016 -0.002,-0.025 -0.621,-9.474 7.179,-12.975 11.839,-15.066 2.425,-1.089 4.177,-1.876 4.132,-3.778 -0.01,-0.402 -0.159,-1.404 -1.341,-2.026 -1.33,-0.7 -5.426,-1.215 -10.437,-1.215"
           style="fill:#ffffff;fill-opacity:1;fill-rule:nonzero;stroke:none"
           id="path153" /></g>
            <g
                    id="g155"
                    transform="translate(510.3975,334.8154)"><path
           d="m 0,0 c 5.057,-2.464 12.284,-7.112 12.084,-17.122 1.243,0.244 2.454,0.514 3.623,0.815 7.584,1.956 11.145,5.188 11.309,7.523 0.082,1.163 -0.093,2.91 -2.551,4.654 C 18.904,-0.184 6.854,0.365 0,0 m 7.044,-22.155 c -3.177,-0.443 -6.424,-0.79 -9.617,-1.131 -10.603,-1.134 -20.618,-2.204 -26.287,-6.352 -1.112,-0.813 -0.995,-1.577 -0.77,-2.15 1.011,-2.577 6.793,-5.89 15.996,-4.816 12.305,1.436 18.527,7.981 20.678,14.449 m -24.201,-18.806 c -8.769,0 -14.739,3.596 -16.333,7.658 -1.034,2.634 -0.219,5.255 2.181,7.012 6.569,4.806 17.122,5.935 28.295,7.128 3.642,0.39 7.353,0.786 10.917,1.323 0,0.009 0.001,0.018 0.001,0.026 0.621,9.473 -7.177,12.974 -11.838,15.067 -2.425,1.089 -4.177,1.875 -4.132,3.776 0.009,0.403 0.159,1.406 1.34,2.027 3.346,1.76 24.184,2.35 33.114,-3.48 4.246,-2.771 4.935,-6.234 4.764,-8.651 -0.337,-4.802 -5.724,-9.007 -14.409,-11.247 -1.679,-0.433 -3.424,-0.802 -5.212,-1.123 -0.902,-3.793 -2.875,-7.48 -5.652,-10.461 -4.509,-4.841 -11.09,-7.89 -19.032,-8.817 -1.391,-0.162 -2.728,-0.238 -4.004,-0.238"
           style="fill:#ffffff;fill-opacity:1;fill-rule:nonzero;stroke:none"
           id="path157" /></g></g>
        <g
                id="g159"
                transform="translate(314.3799,502.854)"><path
         d="m 0,0 c -0.495,0 -0.896,-0.402 -0.896,-0.897 0,-0.496 0.401,-0.897 0.896,-0.897 0.496,0 0.897,0.401 0.897,0.897 C 0.897,-0.402 0.496,0 0,0 m 4.179,0.55 c -0.496,0 -0.898,-0.402 -0.898,-0.897 0,-0.495 0.402,-0.897 0.898,-0.897 0.495,0 0.896,0.402 0.896,0.897 0,0.495 -0.401,0.897 -0.896,0.897 m -8.357,0 c -0.495,0 -0.896,-0.402 -0.896,-0.897 0,-0.495 0.401,-0.897 0.896,-0.897 0.495,0 0.897,0.402 0.897,0.897 0,0.495 -0.402,0.897 -0.897,0.897 m 12.25,1.613 c -0.495,0 -0.896,-0.401 -0.896,-0.897 0,-0.495 0.401,-0.896 0.896,-0.896 0.495,0 0.898,0.401 0.898,0.896 0,0.496 -0.403,0.897 -0.898,0.897 m -16.144,0 c -0.495,0 -0.897,-0.401 -0.897,-0.897 0,-0.495 0.402,-0.896 0.897,-0.896 0.496,0 0.897,0.401 0.897,0.896 0,0.496 -0.401,0.897 -0.897,0.897 m 19.489,2.565 c -0.496,0 -0.897,-0.402 -0.897,-0.897 0,-0.496 0.401,-0.897 0.897,-0.897 0.495,0 0.896,0.401 0.896,0.897 0,0.495 -0.401,0.897 -0.896,0.897 m -22.833,0 c -0.495,0 -0.897,-0.402 -0.897,-0.897 0,-0.496 0.402,-0.897 0.897,-0.897 0.495,0 0.896,0.401 0.896,0.897 0,0.495 -0.401,0.897 -0.896,0.897 m 25.397,3.344 c -0.495,0 -0.897,-0.402 -0.897,-0.897 0,-0.495 0.402,-0.897 0.897,-0.897 0.496,0 0.897,0.402 0.897,0.897 0,0.495 -0.401,0.897 -0.897,0.897 m -27.961,0 c -0.496,0 -0.898,-0.402 -0.898,-0.897 0,-0.495 0.402,-0.897 0.898,-0.897 0.495,0 0.896,0.402 0.896,0.897 0,0.495 -0.401,0.897 -0.896,0.897 m 29.575,3.894 c -0.495,0 -0.898,-0.402 -0.898,-0.897 0,-0.495 0.403,-0.897 0.898,-0.897 0.495,0 0.896,0.402 0.896,0.897 0,0.495 -0.401,0.897 -0.896,0.897 m -31.189,0 c -0.495,0 -0.897,-0.402 -0.897,-0.897 0,-0.495 0.402,-0.897 0.897,-0.897 0.495,0 0.897,0.402 0.897,0.897 0,0.495 -0.402,0.897 -0.897,0.897 m 31.739,4.178 c -0.496,0 -0.897,-0.401 -0.897,-0.897 0,-0.495 0.401,-0.896 0.897,-0.896 0.495,0 0.897,0.401 0.897,0.896 0,0.496 -0.402,0.897 -0.897,0.897 m -32.29,0 c -0.495,0 -0.896,-0.401 -0.896,-0.897 0,-0.495 0.401,-0.896 0.896,-0.896 0.497,0 0.898,0.401 0.898,0.896 0,0.496 -0.401,0.897 -0.898,0.897 M 0,19.732 c 1.497,0 2.691,-1.194 2.691,-2.691 0,-0.997 -0.54,-1.844 -1.347,-2.314 L 0.897,14.468 V 9.866 C 0.897,9.359 0.507,8.969 0,8.969 c -0.507,0 -0.896,0.39 -0.896,0.897 v 4.602 l -0.448,0.259 c -0.806,0.47 -1.346,1.317 -1.346,2.314 0,1.497 1.194,2.691 2.69,2.691 m 15.595,0.59 c -0.495,0 -0.898,-0.402 -0.898,-0.897 0,-0.495 0.403,-0.897 0.898,-0.897 0.495,0 0.896,0.402 0.896,0.897 0,0.495 -0.401,0.897 -0.896,0.897 m -31.189,0 c -0.495,0 -0.897,-0.402 -0.897,-0.897 0,-0.495 0.402,-0.897 0.897,-0.897 0.495,0 0.897,0.402 0.897,0.897 0,0.495 -0.402,0.897 -0.897,0.897 M 0,21.525 c -2.466,0 -4.484,-2.018 -4.484,-4.484 0,-1.424 0.755,-2.603 1.794,-3.421 V 9.866 c 0,-1.475 1.215,-2.691 2.69,-2.691 1.476,0 2.691,1.216 2.691,2.691 v 3.754 c 1.038,0.818 1.793,1.997 1.793,3.421 0,2.466 -2.017,4.484 -4.484,4.484 m 13.981,2.691 c -0.495,0 -0.897,-0.401 -0.897,-0.897 0,-0.495 0.402,-0.897 0.897,-0.897 0.496,0 0.897,0.402 0.897,0.897 0,0.496 -0.401,0.897 -0.897,0.897 m -27.961,0 c -0.496,0 -0.898,-0.401 -0.898,-0.897 0,-0.495 0.402,-0.897 0.898,-0.897 0.495,0 0.896,0.402 0.896,0.897 0,0.496 -0.401,0.897 -0.896,0.897 m 25.397,3.345 c -0.496,0 -0.897,-0.402 -0.897,-0.897 0,-0.496 0.401,-0.897 0.897,-0.897 0.495,0 0.896,0.401 0.896,0.897 0,0.495 -0.401,0.897 -0.896,0.897 m -22.833,0 c -0.495,0 -0.897,-0.402 -0.897,-0.897 0,-0.496 0.402,-0.897 0.897,-0.897 0.495,0 0.896,0.401 0.896,0.897 0,0.495 -0.401,0.897 -0.896,0.897 m 19.488,2.564 c -0.495,0 -0.896,-0.401 -0.896,-0.897 0,-0.495 0.401,-0.897 0.896,-0.897 0.495,0 0.898,0.402 0.898,0.897 0,0.496 -0.403,0.897 -0.898,0.897 m -16.144,0 c -0.495,0 -0.897,-0.401 -0.897,-0.897 0,-0.495 0.402,-0.897 0.897,-0.897 0.496,0 0.897,0.402 0.897,0.897 0,0.496 -0.401,0.897 -0.897,0.897 m 12.251,1.613 c -0.496,0 -0.898,-0.401 -0.898,-0.896 0,-0.496 0.402,-0.897 0.898,-0.897 0.495,0 0.896,0.401 0.896,0.897 0,0.495 -0.401,0.896 -0.896,0.896 m -8.357,0 c -0.495,0 -0.896,-0.401 -0.896,-0.896 0,-0.496 0.401,-0.897 0.896,-0.897 0.495,0 0.897,0.401 0.897,0.897 0,0.495 -0.402,0.896 -0.897,0.896 M 0,32.289 c -0.495,0 -0.896,-0.402 -0.896,-0.897 0,-0.496 0.401,-0.897 0.896,-0.897 0.496,0 0.897,0.401 0.897,0.897 0,0.495 -0.401,0.897 -0.897,0.897 m 0,2.69 c 10.908,0 19.732,-8.823 19.732,-19.732 C 19.732,4.339 10.908,-4.485 0,-4.485 c -10.908,0 -19.731,8.824 -19.731,19.732 0,10.909 8.823,19.732 19.731,19.732 M 0,49.33 c 6.945,0 12.557,-5.612 12.557,-12.557 V 32.721 C 9.021,35.268 4.686,36.773 0,36.773 c -4.685,0 -9.021,-1.505 -12.557,-4.052 v 4.052 c 0,6.945 5.612,12.557 12.557,12.557 m 0,1.794 c -7.914,0 -14.351,-6.436 -14.351,-14.351 v -5.492 c -4.401,-3.943 -7.174,-9.667 -7.174,-16.034 0,-11.877 9.647,-21.525 21.525,-21.525 11.878,0 21.526,9.648 21.526,21.525 0,6.367 -2.773,12.091 -7.175,16.034 v 5.492 C 14.351,44.688 7.915,51.124 0,51.124"
         style="fill:#808285;fill-opacity:1;fill-rule:nonzero;stroke:none"
         id="path161" /></g>
        <g
                id="g163"
                transform="translate(355.2295,583.8872)"><path
         d="m 0,0 c -0.495,-0.01 -0.888,-0.42 -0.878,-0.916 0.008,-0.337 0.203,-0.642 0.507,-0.789 -0.003,0.002 0.009,-0.005 0.037,-0.019 l 0.401,-0.199 0.44,0.218 c 0.445,0.218 0.63,0.755 0.412,1.2 C 0.765,-0.189 0.44,0.007 0.09,-0.002 H 0.083 C 0.056,0 0.028,0 0,0 M -3.449,1.917 -4.028,1.361 -3.933,0.564 -3.715,0.334 -3.64,0.28 -2.848,0.147 -2.267,0.703 -2.362,1.5 -2.582,1.729 -2.655,1.783 Z M 2.98,2.021 2.7,1.875 2.628,1.818 2.281,1.093 2.654,0.382 3.448,0.254 3.729,0.401 3.8,0.457 4.146,1.183 3.773,1.894 Z m -9.296,2.262 -0.631,-0.496 0.021,-0.804 0.195,-0.249 0.07,-0.061 0.775,-0.207 0.631,0.496 -0.019,0.804 -0.197,0.249 -0.068,0.061 z M 5.737,4.437 5.473,4.264 5.406,4.201 5.132,3.446 5.573,2.775 6.375,2.724 6.64,2.897 6.706,2.96 6.981,3.715 6.54,4.388 Z M -8.9,6.951 -9.58,6.522 -9.645,5.721 l 0.168,-0.268 0.063,-0.068 0.75,-0.287 0.68,0.427 0.065,0.801 -0.169,0.268 -0.062,0.068 z M 9.041,7.146 8.239,7.114 7.994,6.916 7.933,6.846 7.736,6.068 8.241,5.443 l 0.804,0.031 0.245,0.2 0.06,0.068 0.198,0.78 z m -20.224,2.727 -0.723,-0.347 -0.157,-0.788 0.135,-0.286 0.055,-0.075 0.711,-0.373 0.725,0.347 0.157,0.788 -0.137,0.285 L -10.47,9.5 Z M 11.285,10.115 10.49,9.998 10.268,9.773 10.215,9.698 10.102,8.902 l 0.57,-0.567 0.796,0.117 0.222,0.225 0.052,0.075 0.112,0.795 z m -24.5,2.894 -0.746,-0.303 -0.203,-0.776 0.119,-0.295 0.049,-0.077 0.688,-0.415 0.745,0.301 0.203,0.778 -0.119,0.293 -0.049,0.078 z m 26.506,0.256 -0.788,-0.163 -0.209,-0.237 -0.049,-0.079 -0.066,-0.8 0.6,-0.533 0.789,0.163 0.208,0.237 0.049,0.077 0.067,0.8 z m -28.143,3.068 -0.775,-0.206 -0.3,-0.745 0.081,-0.306 0.038,-0.082 0.631,-0.5 0.778,0.207 0.299,0.744 -0.082,0.307 -0.039,0.082 z m 29.833,0.241 -0.759,-0.256 -0.181,-0.259 -0.039,-0.084 0.032,-0.803 0.66,-0.457 0.762,0.256 0.179,0.26 0.039,0.083 -0.03,0.804 z m -31.225,3.216 -0.79,-0.142 -0.359,-0.72 0.056,-0.312 0.033,-0.086 0.587,-0.546 0.792,0.141 0.36,0.721 -0.059,0.31 -0.031,0.087 z m 32.69,0.222 -0.748,-0.29 -0.168,-0.27 -0.033,-0.084 0.066,-0.801 0.683,-0.425 0.748,0.292 0.168,0.268 0.034,0.084 -0.068,0.802 z m -33.75,3.342 -0.8,-0.066 -0.427,-0.682 0.026,-0.313 0.023,-0.089 0.532,-0.603 0.803,0.066 0.425,0.682 -0.026,0.316 -0.023,0.089 z m 34.878,0.209 -0.717,-0.364 -0.139,-0.282 -0.027,-0.09 0.146,-0.79 0.72,-0.357 0.718,0.364 0.14,0.284 0.024,0.088 -0.145,0.79 z m -35.678,3.442 -0.804,-0.015 -0.468,-0.652 0.005,-0.317 0.017,-0.089 0.495,-0.637 0.804,0.017 0.468,0.653 -0.006,0.315 -0.017,0.091 z m 36.549,0.188 -0.692,-0.412 -0.121,-0.291 -0.02,-0.089 0.197,-0.779 0.743,-0.309 0.692,0.41 0.12,0.293 0.02,0.089 -0.198,0.779 z M 0.072,28.204 c 1.496,0 2.691,-1.195 2.691,-2.691 0,-1.062 -0.616,-1.96 -1.508,-2.402 L 0.659,22.817 1.705,16.544 h -3.266 l 1.046,6.273 -0.595,0.294 c -0.893,0.442 -1.508,1.34 -1.508,2.402 0,1.496 1.194,2.691 2.69,2.691 m 0,1.794 c -2.466,0 -4.484,-2.019 -4.484,-4.485 0,-1.486 0.826,-2.695 1.944,-3.507 L -3.677,14.75 h 7.498 l -1.209,7.256 c 1.118,0.812 1.945,2.021 1.945,3.507 0,2.466 -2.019,4.485 -4.485,4.485 m -19.514,0.742 -0.508,-0.623 -0.015,-0.316 0.013,-0.091 0.452,-0.664 0.802,-0.035 0.51,0.622 0.014,0.315 -0.013,0.092 -0.454,0.665 z m 38.479,0.137 -0.662,-0.456 -0.102,-0.299 -0.014,-0.09 0.251,-0.763 0.76,-0.26 0.662,0.456 0.102,0.299 0.014,0.091 -0.249,0.764 z m -38.739,3.649 -0.562,-0.575 -0.042,-0.312 0.001,-0.036 v -0.015 l 0.002,-0.013 0.004,-0.055 0.411,-0.69 0.799,-0.084 0.545,0.59 0.033,0.314 -0.002,0.028 -10e-4,0.028 v 0.009 l -0.39,0.702 z m 39.061,0.072 -0.63,-0.5 -0.081,-0.306 -0.008,-0.091 0.298,-0.745 0.779,-0.206 0.631,0.499 0.08,0.305 0.007,0.091 -0.299,0.746 z m 0.221,3.715 c -0.495,-0.014 -0.886,-0.426 -0.872,-0.921 0.008,-0.257 0.124,-0.498 0.32,-0.663 0.001,0 0.002,-0.002 0.003,-0.003 0.353,-0.349 0.921,-0.345 1.269,0.007 0.169,0.171 0.262,0.403 0.26,0.643 v 0.881 l -0.845,0.051 c 0.021,-10e-4 0.007,0 -0.046,0.004 -0.029,0.001 -0.06,0.002 -0.089,0.001 m -39.042,0 c -0.02,0 -0.042,0 -0.062,-0.001 -0.053,-0.004 -0.067,-0.005 -0.044,-0.004 l -0.845,-0.051 v -0.883 c -0.007,-0.495 0.389,-0.903 0.884,-0.91 0.255,-0.004 0.499,0.101 0.672,0.288 0.366,0.333 0.393,0.901 0.06,1.268 -0.17,0.187 -0.412,0.293 -0.665,0.293 m 3.498,0.408 -0.089,-0.014 -0.651,-0.469 -0.017,-0.804 0.637,-0.493 0.314,-0.005 0.09,0.014 0.652,0.469 0.014,0.803 -0.634,0.494 z m 32.051,0.016 -0.76,-0.259 -0.247,-0.766 0.464,-0.655 0.302,-0.097 0.089,-0.012 0.76,0.26 0.246,0.765 -0.465,0.655 -0.299,0.097 z m -3.586,0.597 -0.771,-0.228 -0.278,-0.752 0.436,-0.677 0.298,-0.109 0.087,-0.015 0.771,0.227 0.278,0.754 -0.435,0.674 -0.296,0.11 z m -24.564,0.009 -0.315,-0.005 -0.087,-0.018 -0.635,-0.494 0.015,-0.804 0.653,-0.467 0.317,0.005 0.088,0.017 0.633,0.494 -0.015,0.804 z M 8.985,40.126 8.199,39.958 7.864,39.226 8.25,38.521 8.537,38.39 l 0.087,-0.023 0.785,0.169 0.335,0.732 -0.386,0.704 -0.287,0.132 z m -17.491,0.014 -0.317,-0.015 -0.086,-0.021 -0.618,-0.516 0.044,-0.802 0.669,-0.447 0.315,0.018 0.088,0.021 0.616,0.515 -0.044,0.802 z m 13.981,0.96 -0.79,-0.142 -0.36,-0.72 0.362,-0.718 0.282,-0.14 0.086,-0.026 0.791,0.143 0.359,0.718 -0.36,0.719 -0.284,0.142 z M -5.027,41.137 -5.341,41.1 -5.427,41.076 -6.01,40.522 l 0.095,-0.799 0.695,-0.403 0.314,0.039 0.086,0.024 0.583,0.554 -0.095,0.799 z m 7.074,1.123 -0.798,-0.095 -0.4,-0.697 0.316,-0.738 0.273,-0.157 0.084,-0.03 0.799,0.095 0.402,0.695 -0.318,0.739 -0.274,0.158 z m -3.658,0.065 -0.31,-0.056 -0.084,-0.032 -0.547,-0.591 0.148,-0.79 0.719,-0.357 0.312,0.058 0.084,0.031 0.545,0.591 -0.146,0.79 z m 1.683,4.632 C 1.104,46.458 10.907,41.917 24.256,41.699 24.077,21.793 18.003,9.92 11.954,3.008 6.04,-3.752 0.486,-5.651 0.072,-5.79 c -0.414,0.139 -5.968,2.038 -11.882,8.798 -6.048,6.912 -12.124,18.785 -12.301,38.691 13.348,0.218 23.152,4.759 24.183,5.258 m 0,1.981 -0.401,-0.2 c 0,0 -10.586,-5.287 -24.712,-5.287 h -0.897 v -0.897 c 0,-20.811 6.361,-33.391 12.779,-40.727 6.419,-7.335 12.956,-9.456 12.956,-9.456 l 0.275,-0.089 0.276,0.089 c 0,0 6.537,2.121 12.956,9.456 6.418,7.336 12.779,19.916 12.779,40.727 v 0.897 h -0.897 c -14.126,0 -24.712,5.287 -24.712,5.287 z"
         style="fill:#808285;fill-opacity:1;fill-rule:nonzero;stroke:none"
         id="path165" /></g>
        <g
                id="g167"
                transform="translate(352.4834,396.7148)"><path
         d="m 0,0 c -0.495,0 -0.896,-0.401 -0.896,-0.896 0,-0.496 0.401,-0.897 0.896,-0.897 0.496,0 0.897,0.401 0.897,0.897 C 0.897,-0.401 0.496,0 0,0 m 4.179,0.55 c -0.496,0 -0.898,-0.401 -0.898,-0.897 0,-0.495 0.402,-0.897 0.898,-0.897 0.495,0 0.896,0.402 0.896,0.897 0,0.496 -0.401,0.897 -0.896,0.897 m -8.357,0 c -0.495,0 -0.896,-0.401 -0.896,-0.897 0,-0.495 0.401,-0.897 0.896,-0.897 0.495,0 0.898,0.402 0.898,0.897 0,0.496 -0.403,0.897 -0.898,0.897 m 12.25,1.614 c -0.495,0 -0.896,-0.402 -0.896,-0.897 0,-0.496 0.401,-0.897 0.896,-0.897 0.496,0 0.898,0.401 0.898,0.897 0,0.495 -0.402,0.897 -0.898,0.897 m -16.143,0 c -0.496,0 -0.898,-0.402 -0.898,-0.897 0,-0.496 0.402,-0.897 0.898,-0.897 0.495,0 0.896,0.401 0.896,0.897 0,0.495 -0.401,0.897 -0.896,0.897 m 19.488,2.564 c -0.496,0 -0.897,-0.401 -0.897,-0.896 0,-0.496 0.401,-0.897 0.897,-0.897 0.495,0 0.896,0.401 0.896,0.897 0,0.495 -0.401,0.896 -0.896,0.896 m -22.833,0 c -0.495,0 -0.897,-0.401 -0.897,-0.896 0,-0.496 0.402,-0.897 0.897,-0.897 0.495,0 0.897,0.401 0.897,0.897 0,0.495 -0.402,0.896 -0.897,0.896 m 25.397,3.344 c -0.495,0 -0.897,-0.401 -0.897,-0.897 0,-0.495 0.402,-0.897 0.897,-0.897 0.496,0 0.897,0.402 0.897,0.897 0,0.496 -0.401,0.897 -0.897,0.897 m -27.961,0 c -0.496,0 -0.897,-0.401 -0.897,-0.897 0,-0.495 0.401,-0.897 0.897,-0.897 0.495,0 0.896,0.402 0.896,0.897 0,0.496 -0.401,0.897 -0.896,0.897 m 29.575,3.895 c -0.495,0 -0.897,-0.402 -0.897,-0.897 0,-0.496 0.402,-0.897 0.897,-0.897 0.495,0 0.896,0.401 0.896,0.897 0,0.495 -0.401,0.897 -0.896,0.897 m -31.189,0 c -0.495,0 -0.897,-0.402 -0.897,-0.897 0,-0.496 0.402,-0.897 0.897,-0.897 0.495,0 0.897,0.401 0.897,0.897 0,0.495 -0.402,0.897 -0.897,0.897 m 31.739,4.178 c -0.496,0 -0.897,-0.402 -0.897,-0.897 0,-0.496 0.401,-0.897 0.897,-0.897 0.495,0 0.897,0.401 0.897,0.897 0,0.495 -0.402,0.897 -0.897,0.897 m -32.289,0 c -0.496,0 -0.897,-0.402 -0.897,-0.897 0,-0.496 0.401,-0.897 0.897,-0.897 0.496,0 0.897,0.401 0.897,0.897 0,0.495 -0.401,0.897 -0.897,0.897 M 0,19.732 c 1.497,0 2.691,-1.194 2.691,-2.69 0,-0.998 -0.54,-1.845 -1.347,-2.314 L 0.897,14.468 V 9.866 C 0.897,9.359 0.507,8.969 0,8.969 c -0.507,0 -0.896,0.39 -0.896,0.897 v 4.602 l -0.447,0.26 c -0.807,0.469 -1.347,1.316 -1.347,2.314 0,1.496 1.194,2.69 2.69,2.69 m 15.595,0.591 c -0.495,0 -0.897,-0.402 -0.897,-0.897 0,-0.496 0.402,-0.897 0.897,-0.897 0.495,0 0.896,0.401 0.896,0.897 0,0.495 -0.401,0.897 -0.896,0.897 m -31.189,0 c -0.495,0 -0.897,-0.402 -0.897,-0.897 0,-0.496 0.402,-0.897 0.897,-0.897 0.495,0 0.897,0.401 0.897,0.897 0,0.495 -0.402,0.897 -0.897,0.897 M 0,21.526 c -2.466,0 -4.484,-2.019 -4.484,-4.484 0,-1.425 0.755,-2.604 1.794,-3.422 V 9.866 c 0,-1.475 1.215,-2.691 2.69,-2.691 1.476,0 2.691,1.216 2.691,2.691 v 3.754 c 1.038,0.818 1.794,1.997 1.794,3.422 0,2.465 -2.018,4.484 -4.485,4.484 m 13.981,2.691 c -0.495,0 -0.897,-0.402 -0.897,-0.897 0,-0.495 0.402,-0.897 0.897,-0.897 0.496,0 0.897,0.402 0.897,0.897 0,0.495 -0.401,0.897 -0.897,0.897 m -27.961,0 c -0.496,0 -0.897,-0.402 -0.897,-0.897 0,-0.495 0.401,-0.897 0.897,-0.897 0.495,0 0.896,0.402 0.896,0.897 0,0.495 -0.401,0.897 -0.896,0.897 m 25.397,3.344 c -0.496,0 -0.897,-0.402 -0.897,-0.897 0,-0.496 0.401,-0.897 0.897,-0.897 0.495,0 0.896,0.401 0.896,0.897 0,0.495 -0.401,0.897 -0.896,0.897 m -22.833,0 c -0.495,0 -0.897,-0.402 -0.897,-0.897 0,-0.496 0.402,-0.897 0.897,-0.897 0.495,0 0.897,0.401 0.897,0.897 0,0.495 -0.402,0.897 -0.897,0.897 m 19.488,2.564 c -0.495,0 -0.896,-0.401 -0.896,-0.896 0,-0.496 0.401,-0.897 0.896,-0.897 0.496,0 0.898,0.401 0.898,0.897 0,0.495 -0.402,0.896 -0.898,0.896 m -16.143,0 c -0.496,0 -0.898,-0.401 -0.898,-0.896 0,-0.496 0.402,-0.897 0.898,-0.897 0.495,0 0.896,0.401 0.896,0.897 0,0.495 -0.401,0.896 -0.896,0.896 m 12.25,1.614 c -0.496,0 -0.898,-0.402 -0.898,-0.897 0,-0.495 0.402,-0.897 0.898,-0.897 0.495,0 0.896,0.402 0.896,0.897 0,0.495 -0.401,0.897 -0.896,0.897 m -8.357,0 c -0.495,0 -0.896,-0.402 -0.896,-0.897 0,-0.495 0.401,-0.897 0.896,-0.897 0.495,0 0.898,0.402 0.898,0.897 0,0.495 -0.403,0.897 -0.898,0.897 M 0,32.289 c -0.495,0 -0.896,-0.402 -0.896,-0.897 0,-0.496 0.401,-0.897 0.896,-0.897 0.496,0 0.897,0.401 0.897,0.897 0,0.495 -0.401,0.897 -0.897,0.897 m 0,2.69 c 10.909,0 19.732,-8.823 19.732,-19.731 C 19.732,4.339 10.909,-4.484 0,-4.484 c -10.908,0 -19.731,8.823 -19.731,19.732 0,5.656 2.377,10.748 6.181,14.343 0.493,-0.053 0.936,0.303 0.988,0.796 0.003,0.03 0.005,0.059 0.005,0.089 3.411,2.814 7.785,4.503 12.557,4.503 m 0,16.145 c -7.914,0 -14.351,-6.436 -14.351,-14.351 v -5.491 c -4.401,-3.943 -7.174,-9.668 -7.174,-16.034 0,-11.878 9.648,-21.526 21.525,-21.526 11.878,0 21.526,9.648 21.526,21.526 0,11.877 -9.648,21.525 -21.526,21.525 -4.685,0 -9.021,-1.504 -12.557,-4.051 v 4.051 c 0,6.946 5.613,12.557 12.557,12.557 5.143,0 9.55,-3.084 11.495,-7.496 0.201,-0.453 0.731,-0.658 1.184,-0.458 0.453,0.201 0.658,0.73 0.458,1.184 C 10.912,47.605 5.86,51.124 0,51.124"
         style="fill:#808285;fill-opacity:1;fill-rule:nonzero;stroke:none"
         id="path169" /></g>
        <g
                id="g171"
                transform="translate(341.8906,298.4229)"><path
         d="m 0,0 c -0.494,0 -0.897,-0.403 -0.897,-0.897 0,-0.495 0.403,-0.897 0.897,-0.897 0.494,0 0.896,0.402 0.896,0.897 C 0.896,-0.403 0.494,0 0,0 m -3.588,0 c -0.494,0 -0.896,-0.403 -0.896,-0.897 0,-0.495 0.402,-0.897 0.896,-0.897 0.494,0 0.897,0.402 0.897,0.897 0,0.494 -0.403,0.897 -0.897,0.897 m -3.588,0 c -0.494,0 -0.896,-0.403 -0.896,-0.897 0,-0.495 0.402,-0.897 0.896,-0.897 0.494,0 0.898,0.402 0.898,0.897 0,0.494 -0.404,0.897 -0.898,0.897 m -3.587,0 c -0.494,0 -0.897,-0.403 -0.897,-0.897 0,-0.495 0.403,-0.897 0.897,-0.897 0.493,0 0.897,0.402 0.897,0.897 0,0.494 -0.404,0.897 -0.897,0.897 m -3.588,0 c -0.494,0 -0.897,-0.403 -0.897,-0.897 0,-0.495 0.403,-0.897 0.897,-0.897 0.495,0 0.897,0.402 0.897,0.897 0,0.494 -0.402,0.897 -0.897,0.897 m -3.587,0 c -0.495,0 -0.897,-0.403 -0.897,-0.897 0,-0.495 0.402,-0.897 0.897,-0.897 0.494,0 0.896,0.402 0.896,0.897 0,0.494 -0.402,0.897 -0.896,0.897 m -3.588,0 c -0.495,0 -0.897,-0.403 -0.897,-0.897 0,-0.495 0.402,-0.897 0.897,-0.897 0.494,0 0.897,0.402 0.897,0.897 0,0.494 -0.403,0.897 -0.897,0.897 m -3.587,0 c -0.494,0 -0.898,-0.403 -0.898,-0.897 0,-0.495 0.404,-0.897 0.898,-0.897 0.493,0 0.896,0.402 0.896,0.897 0,0.494 -0.403,0.897 -0.896,0.897 m -3.588,0 c -0.494,0 -0.898,-0.403 -0.898,-0.897 0,-0.495 0.404,-0.897 0.898,-0.897 0.494,0 0.896,0.402 0.896,0.897 0,0.494 -0.402,0.897 -0.896,0.897 m -3.588,0 c -0.494,0 -0.897,-0.403 -0.897,-0.897 0,-0.495 0.403,-0.897 0.897,-0.897 0.494,0 0.897,0.402 0.897,0.897 0,0.494 -0.403,0.897 -0.897,0.897 m -3.588,0 c -0.494,0 -0.896,-0.403 -0.896,-0.897 0,-0.495 0.402,-0.897 0.896,-0.897 0.494,0 0.898,0.402 0.898,0.897 0,0.494 -0.404,0.897 -0.898,0.897 m 10.764,9.547 V 7.861 l 0.093,-0.192 c 0,0 2.117,-4.082 7.082,-4.082 4.964,0 7.081,4.082 7.081,4.082 l 0.094,0.192 V 9.547 C -9.323,9.095 -6.685,8.205 -3.97,6.923 -1.997,5.99 -0.035,4.866 1.377,3.65 2.788,2.435 3.587,1.184 3.587,0 V -3.588 H -39.464 V 0 c 0,1.184 0.799,2.435 2.21,3.65 1.412,1.216 3.374,2.34 5.347,3.273 2.716,1.282 5.353,2.172 6.794,2.624 m 1.793,4.064 c 0.957,-0.501 1.99,-0.886 3.087,-1.107 0.633,-0.505 1.419,-0.845 2.295,-0.845 0.872,0 1.653,0.34 2.284,0.841 1.1,0.218 2.137,0.603 3.097,1.107 V 8.353 c -0.109,-0.218 -1.528,-2.972 -5.381,-2.972 -3.854,0 -5.273,2.754 -5.382,2.972 z m 10.314,15.09 c -0.742,0 -1.345,-0.603 -1.345,-1.346 0,-0.743 0.603,-1.345 1.345,-1.345 0.743,0 1.346,0.602 1.346,1.345 0,0.743 -0.603,1.346 -1.346,1.346 m -9.865,0 c -0.743,0 -1.346,-0.603 -1.346,-1.346 0,-0.743 0.603,-1.345 1.346,-1.345 0.742,0 1.345,0.602 1.345,1.345 0,0.743 -0.603,1.346 -1.345,1.346 m 11.211,10.622 c 0.218,-0.084 0.785,-0.262 1.619,-1.068 0.98,-0.953 1.969,-2.474 1.969,-5.069 V 27.53 l 1.348,0.792 c 0.232,0.133 0.446,0.252 0.596,0.329 0.018,0.011 0.024,0.011 0.042,0.022 0.41,-0.042 0.704,-0.329 0.704,-0.687 v -0.004 c 0,-0.066 -0.108,-0.591 -0.245,-1.061 -0.07,-0.232 -0.141,-0.466 -0.2,-0.68 -0.056,-0.214 -0.115,-0.364 -0.115,-0.679 0,-0.239 -0.197,-0.449 -0.505,-0.449 h -1.625 v -1.226 c 0,-4.864 -3.507,-8.882 -8.125,-9.705 l -0.256,-0.042 -0.193,-0.179 c -0.35,-0.318 -0.791,-0.508 -1.292,-0.508 -0.501,0 -0.943,0.19 -1.293,0.508 l -0.193,0.179 -0.256,0.042 c -4.618,0.823 -8.125,4.841 -8.125,9.705 v 1.226 h -1.625 c -0.308,0 -0.505,0.21 -0.505,0.449 0,0.315 -0.059,0.465 -0.119,0.679 -0.059,0.214 -0.13,0.448 -0.2,0.68 -0.136,0.47 -0.241,0.995 -0.241,1.061 0,0.362 0.294,0.649 0.704,0.691 0.018,-0.011 0.024,-0.011 0.042,-0.022 0.15,-0.077 0.364,-0.196 0.596,-0.329 l 1.348,-0.792 v 2.919 c 0,2.236 1.115,3.739 2.615,4.785 1.499,1.048 3.405,1.538 4.561,1.538 3.213,0 5.588,0.706 7.168,1.427 1.174,0.536 1.482,0.865 1.801,1.124 m -7.421,9.11 c 2.635,0 4.271,-0.817 5.276,-1.605 1.01,-0.788 1.343,-1.482 1.343,-1.482 l 0.245,-0.501 h 0.557 c 1.194,0 2.803,-0.455 4.054,-1.559 1.253,-1.103 2.224,-2.827 2.224,-5.616 0,-2.502 -0.596,-6.152 -0.77,-7.176 h -0.015 c -0.076,0 -0.062,-0.017 -0.111,-0.024 v 2.716 c 0,3.068 -1.255,5.132 -2.516,6.355 -1.262,1.223 -2.582,1.671 -2.582,1.671 l -0.512,0.172 -0.392,-0.375 c 0,0 -0.565,-0.554 -1.927,-1.178 -1.363,-0.623 -3.472,-1.265 -6.422,-1.265 -1.615,0 -3.742,-0.57 -5.589,-1.86 -1.839,-1.285 -3.37,-3.388 -3.377,-6.239 -0.049,0.007 -0.038,0.027 -0.115,0.027 -0.021,0 -0.042,-0.007 -0.063,-0.007 -0.183,0.866 -0.477,2.555 -0.477,4.716 0,2.348 -0.841,3.906 -1.72,4.811 -0.375,0.385 -0.459,0.318 -0.785,0.511 0.62,0.729 1.773,2.022 3.734,3.622 2.667,2.176 6.269,4.286 9.94,4.286 m 0,1.794 c -4.341,0 -8.243,-2.375 -11.074,-4.685 -2.831,-2.313 -4.635,-4.632 -4.635,-4.632 l -0.81,-1.037 1.265,-0.371 c 0,0 0.49,-0.137 1.079,-0.739 0.585,-0.599 1.212,-1.622 1.212,-3.56 0,-2.512 0.386,-4.54 0.578,-5.398 -0.501,-0.456 -0.823,-1.101 -0.823,-1.823 0,-0.581 0.175,-1.079 0.319,-1.566 0.07,-0.245 0.14,-0.473 0.186,-0.645 0.045,-0.171 0.055,-0.339 0.055,-0.209 0,-1.219 1.024,-2.172 2.229,-2.214 0.164,-3.476 1.839,-6.545 4.387,-8.567 V 11.436 C -26.406,11.043 -29.511,10.041 -32.671,8.548 -34.734,7.574 -36.809,6.4 -38.424,5.01 -40.039,3.619 -41.258,1.955 -41.258,0 V -5.382 H 5.381 V 0 c 0,1.955 -1.219,3.619 -2.834,5.01 -1.615,1.39 -3.69,2.564 -5.753,3.538 -3.16,1.493 -6.265,2.495 -7.557,2.888 v 3.341 c 2.547,2.022 4.222,5.091 4.386,8.571 1.205,0.042 2.229,0.995 2.229,2.214 0,-0.13 0.01,0.038 0.055,0.209 0.046,0.172 0.116,0.4 0.187,0.645 0.143,0.487 0.318,0.985 0.318,1.566 0,0.736 -0.333,1.384 -0.845,1.843 0.165,0.946 0.845,4.996 0.845,7.845 0,3.223 -1.205,5.532 -2.831,6.965 -1.461,1.282 -3.178,1.798 -4.698,1.906 -0.245,0.389 -0.68,0.998 -1.58,1.702 -1.293,1.006 -3.367,1.984 -6.384,1.984"
         style="fill:#808285;fill-opacity:1;fill-rule:nonzero;stroke:none"
         id="path173" /></g>
        <text
                transform="matrix(1,0,0,-1,32.2998,294.7314)"
                style="font-variant:normal;font-weight:normal;font-stretch:normal;font-size:13px;font-family:Helvetica;-inkscape-font-specification:Helvetica;writing-mode:lr-tb;fill:#6d6e71;fill-opacity:1;fill-rule:nonzero;stroke:none"
                id="text179"><tspan
         x="0 8.6709995 15.899 23.127001 27.455999 33.956001 41.183998 49.855 57.083 64.310997 70.810997 74.425003 82.144402 89.372398 93.701401 96.587402 103.8154 111.0434 113.9294 121.1574 124.7714 133.4424 140.67039 151.4994 154.38541 158.7144 167.38541 174.6134 177.4994 184.7274"
         y="0"
         sodipodi:role="line"
         id="tspan175">SourceSans Variable Semi-Bold </tspan>
            <tspan
                    x="412.009 420.67999 427.90799 435.13599 439.465 445.965 453.19299 456.80701 465.478 472.70599 479.93399 486.43399 490.048 498.71899 503.048 510.276 513.89001 521.11798 524.00403 531.23199 538.46002"
                    y="260.104"
                    sodipodi:role="line"
                    id="tspan177">Source Sans Pro Light</tspan></text>
        <text
                transform="matrix(1,0,0,-1,33.5532,177.6084)"
                style="font-variant:normal;font-weight:300;font-stretch:normal;font-size:30px;font-family:'Source Sans Pro Light';-inkscape-font-specification:SourceSansPro-Light;writing-mode:lr-tb;fill:#000000;fill-opacity:1;fill-rule:nonzero;stroke:none"
                id="text189"><tspan
         x="0 12.87 28.110001 36.509998 50.189999 73.739998 78.93 84.989998 100.5 111.84 126.9 150.45 155.64 171.14999 186.39 192.69 207.92999 216.63 221.82001 233.16 239.22 247.77 252.96001 266.88 290.42999 303.81 312.89999 318.66 323.85001 335.99701 351.237 366.38699 377.72699 391.40701 403.767 411.987 425.367 433.91699 448.97699 457.677 462.867 476.78699 492.297 498.35699 513.867 519.927"
         y="0"
         sodipodi:role="line"
         id="tspan181">Lorem ipsum dolor sit amet, consectetur adipi-</tspan>
            <tspan
                    x="0 11.34 24 30.059999 45.209999 59.009998 64.199997 77.879997 84.18 90.239998 99.327003 105.087 110.277 127.587 142.647 148.707 160.047 165.237 178.91701 185.217 198.897 222.44701 236.127 251.27699 259.827 274.88699 298.43701 303.62701 317.547 325.94699 338.60699 353.66699 358.85699 373.91699 382.617 397.767 411.68701 417.44699 422.63699 436.017 449.487 462.867 471.41699"
                    y="36"
                    sodipodi:role="line"
                    id="tspan183">scing elit. Duis elementum arcu urna, eget </tspan>
            <tspan
                    x="0 12.21 25.889999 41.040001 54.720001 69.870003 83.459999 92.010002 98.07 109.41 114.6 128.52 136.92 149.58 164.64 169.83 181.17 193.32001 207 213.3 226.98 235.67999 241.74001 253.08 268.59 283.64999 297.32999 302.51999 313.85999 319.92001 328.47 333.66 347.57999 371.13 384.51001 393.60001 399.35999 404.54999 419.51999 433.20001 448.35001 461.57999 475.5 490.64999 495.84 502.617 516.297 524.99701"
                    y="72"
                    sodipodi:role="line"
                    id="tspan185">venenatis arcu scelerisque sit amet. Aenean fer-</tspan>
            <tspan
                    x="0 23.549999 37.23 52.380001 60.93 75.989998 99.540001 105.3 110.49 116.79 132.03 140.42999 154.11 177.66 182.85001 196.23 209.7 223.08 231.63 236.82001 252.33 266.25 281.76001 287.82001 303.26999 318.32999 329.67001 334.85999 347.07001 360.75 375.78 381.84 394.5 409.56 415.85999 429.78 435.54001 440.73001 447.03 453.09 468.54001 482.22 490.62 505.85999"
                    y="108"
                    sodipodi:role="line"
                    id="tspan187">mentum, lorem eget dapibus vehicula, libero </tspan></text>
        <g
                id="g1039"><g
         id="g191"><g
           id="g193"><g
             id="g199"><g
               id="g201"><path
                 d="M 88.313,745.823 C 78.918,744.727 71.132,741.12 65.799,735.394 v 0 c -3.285,-3.527 -5.619,-7.887 -6.686,-12.375 v 0 c -2.115,-0.38 -4.18,-0.816 -6.165,-1.329 v 0 C 42.674,719.041 36.301,714.067 35.901,708.386 v 0 c -0.201,-2.859 0.615,-6.956 5.637,-10.234 v 0 c 6.365,-4.156 17.839,-5.553 26.824,-5.553 v 0 c 5.928,0 10.774,0.609 12.347,1.437 v 0 c 1.398,0.735 1.575,1.921 1.587,2.397 v 0 c 0.054,2.249 -2.02,3.18 -4.889,4.468 v 0 c -5.511,2.474 -14.738,6.617 -14.004,17.823 v 0 c 0.001,0.011 0.001,0.021 0.002,0.03 v 0 c 4.217,0.635 8.607,1.105 12.913,1.565 v 0 c 13.218,1.413 25.702,2.747 33.473,8.433 v 0 c 2.839,2.078 3.803,5.178 2.581,8.295 v 0 c -1.885,4.804 -8.949,9.058 -19.323,9.058 v 0 c -1.51,0 -3.091,-0.09 -4.736,-0.282 m 0.569,-4.872 c 1.445,0.168 2.817,0.245 4.115,0.245 v 0 c 8.486,0 13.771,-3.298 14.809,-5.942 v 0 c 0.265,-0.678 0.403,-1.581 -0.911,-2.543 v 0 c -6.706,-4.907 -18.555,-6.173 -31.097,-7.514 v 0 c -3.778,-0.404 -7.618,-0.814 -11.377,-1.339 v 0 c 2.544,7.652 9.906,15.395 24.461,17.093 M 43.814,702.535 c -2.908,2.064 -3.116,4.132 -3.019,5.507 v 0 c 0.195,2.762 4.407,6.584 13.378,8.898 v 0 c 1.384,0.357 2.816,0.676 4.286,0.965 v 0 c -0.236,-11.842 8.314,-17.34 14.294,-20.255 v 0 c -1.325,-0.07 -2.814,-0.112 -4.408,-0.112 v 0 c -8.153,0 -19.029,1.092 -24.531,4.997"
                 style="fill:url(#linearGradient211);stroke:none"
                 id="path213" /></g></g></g></g>
            <g
                    id="g215"><g
           id="g217"><g
             id="g223"><g
               id="g225"><path
                 d="m 90.868,712.656 c -1.398,-0.735 -1.575,-1.922 -1.587,-2.398 v 0 c -0.053,-2.249 2.02,-3.179 4.889,-4.467 v 0 c 5.512,-2.475 14.739,-6.617 14.004,-17.824 v 0 c 0,-0.01 -0.001,-0.02 -0.002,-0.03 v 0 c -4.215,-0.635 -8.606,-1.104 -12.913,-1.565 v 0 C 82.041,684.96 69.557,683.626 61.787,677.939 v 0 c -2.839,-2.077 -3.805,-5.178 -2.581,-8.294 v 0 c 1.885,-4.805 8.948,-9.059 19.322,-9.059 v 0 c 1.509,0 3.091,0.091 4.736,0.282 v 0 c 9.396,1.096 17.181,4.703 22.514,10.429 v 0 c 3.286,3.527 5.619,7.888 6.686,12.375 v 0 c 2.115,0.381 4.18,0.817 6.166,1.329 v 0 c 10.273,2.65 16.646,7.624 17.046,13.304 v 0 c 0.201,2.86 -0.614,6.957 -5.637,10.235 v 0 c -6.364,4.155 -17.84,5.553 -26.824,5.553 v 0 c -5.929,0 -10.774,-0.609 -12.347,-1.437 m 7.957,-3.614 c 8.106,0.431 22.361,-0.218 28.939,-4.887 v 0 c 2.907,-2.062 3.115,-4.131 3.019,-5.506 v 0 c -0.195,-2.761 -4.407,-6.583 -13.379,-8.898 v 0 c -1.383,-0.357 -2.815,-0.676 -4.286,-0.965 v 0 c 0.236,11.842 -8.313,17.34 -14.293,20.256 M 63.772,671.437 c -0.266,0.678 -0.403,1.581 0.912,2.543 v 0 c 6.706,4.908 18.553,6.173 31.095,7.514 v 0 c 3.779,0.404 7.619,0.815 11.377,1.339 v 0 c -2.545,-7.651 -9.905,-15.394 -24.46,-17.092 v 0 c -1.446,-0.169 -2.819,-0.246 -4.118,-0.246 v 0 c -8.486,0 -13.768,3.298 -14.806,5.942"
                 style="fill:url(#linearGradient235);stroke:none"
                 id="path237" /></g></g></g></g></g>
        <g
                id="g247"
                transform="translate(148.6777,693.5356)"><path
         d="M 0,0 2.936,4.536 C 3.291,5.16 4.359,5.426 4.981,4.981 6.049,4.27 8.539,3.292 11.386,3.292 c 1.601,0 2.846,0.8 2.846,2.045 0,1.779 -0.888,2.669 -4.803,4.982 -4.448,2.49 -7.205,5.248 -7.205,10.319 0,5.693 3.38,11.119 13.432,11.119 4.893,0 8.718,-1.779 10.23,-2.935 0.712,-0.534 1.067,-1.691 0.444,-2.58 l -3.023,-4.449 c -0.446,-0.622 -1.424,-0.978 -2.314,-0.355 -0.801,0.445 -3.202,1.335 -5.96,1.335 -1.868,0 -2.846,-0.712 -2.846,-2.046 0,-1.335 1.067,-2.135 3.558,-3.47 5.337,-2.935 9.34,-5.604 9.34,-11.297 0,-6.138 -4.714,-11.564 -14.055,-11.564 -5.782,0 -9.428,2.223 -10.941,3.469 C -0.534,-1.601 -0.445,-0.711 0,0"
         style="fill:#000000;fill-opacity:1;fill-rule:nonzero;stroke:none"
         id="path249" /></g>
        <g
                id="g251"
                transform="translate(177.6748,722.5352)"><path
         d="m 0,0 c -0.178,1.156 0.445,1.868 1.513,1.868 h 6.849 c 0.534,0 1.157,-0.445 1.245,-1.068 l 2.403,-15.033 h 0.088 l 10.23,16.19 c 0.356,0.533 0.622,0.801 1.424,0.801 h 0.711 c 0.623,0 0.978,-0.356 1.156,-0.801 l 5.249,-16.19 h 0.089 L 37.806,0.8 c 0.445,0.979 1.157,1.068 2.047,1.068 h 6.493 c 1.156,0 1.512,-0.889 0.978,-2.046 L 32.202,-33.625 c -0.267,-0.534 -0.801,-0.979 -1.601,-0.979 h -0.356 c -0.623,0 -0.978,0.356 -1.156,0.801 l -7.205,20.104 h -0.09 L 8.718,-33.803 c -0.267,-0.445 -0.8,-0.801 -1.424,-0.801 H 6.938 c -0.711,0 -1.156,0.445 -1.245,0.979 z"
         style="fill:#000000;fill-opacity:1;fill-rule:nonzero;stroke:none"
         id="path253" /></g>
        <g
                id="g255"
                transform="translate(227.3984,722.0898)"><path
         d="m 0,0 c -0.355,1.156 0.089,2.313 1.334,2.313 h 7.65 c 0.445,0 1.068,-0.445 1.246,-0.979 l 4.625,-21.082 h 0.09 L 25.353,1.334 c 0.355,0.801 1.067,0.979 1.779,0.979 h 7.917 c 1.245,0 1.689,-1.157 0.977,-2.313 L 11.239,-44.412 c -0.355,-0.533 -0.8,-1.067 -1.511,-1.067 H 1.454 c -1.156,0 -1.6,0.89 -0.801,2.134 l 7.442,12.567 z"
         style="fill:#000000;fill-opacity:1;fill-rule:nonzero;stroke:none"
         id="path257" /></g>
        <g
                id="g259"
                transform="translate(268.8496,715.063)"><path
         d="m 0,0 h -3.203 c -0.8,0 -1.334,0.8 -1.245,1.69 l 0.801,5.96 c 0.177,0.978 0.889,1.69 1.689,1.69 h 3.292 l 1.334,9.874 c 0.178,0.89 0.979,1.69 1.779,1.69 l 7.74,0.089 c 0.799,0 1.334,-0.8 1.156,-1.69 L 12.009,9.34 h 6.404 c 0.89,0 1.424,-0.712 1.246,-1.69 L 18.857,1.69 C 18.68,0.8 17.969,0 17.079,0 H 10.674 L 8.629,-14.056 c -0.357,-2.49 0.89,-2.846 1.956,-2.846 1.245,0 2.669,0.712 3.559,1.068 0.889,0.356 1.511,-0.089 1.69,-0.979 l 0.89,-5.871 c 0.177,-0.889 -0.357,-1.601 -1.335,-2.134 -0.711,-0.446 -5.87,-2.314 -9.874,-2.314 -6.138,0 -8.718,4.27 -7.739,11.476 z"
         style="fill:#000000;fill-opacity:1;fill-rule:nonzero;stroke:none"
         id="path261" /></g>
        <g
                id="g263"
                transform="translate(307.8096,725.293)"><path
         d="m 0,0 c 5.427,0 9.874,-2.847 12.098,-6.316 0.534,-0.801 0.09,-1.779 -0.712,-2.491 l -3.558,-3.291 c -0.801,-0.712 -1.779,-0.356 -2.224,0.088 -0.978,0.89 -2.402,2.402 -5.337,2.402 -4.27,0 -8.628,-4.358 -8.628,-10.496 0,-4.27 2.311,-7.651 5.692,-7.651 3.114,0 5.248,2.225 6.315,3.381 0.535,0.623 1.424,0.89 2.225,0.088 l 3.469,-3.38 c 0.712,-0.711 0.889,-1.601 0.267,-2.491 -3.113,-4.091 -7.739,-7.205 -13.343,-7.205 -8.807,0 -15.211,7.028 -15.211,16.546 C -18.947,-8.629 -10.229,0 0,0"
         style="fill:#000000;fill-opacity:1;fill-rule:nonzero;stroke:none"
         id="path265" /></g>
        <g
                id="g267"
                transform="translate(326.0664,740.0234)"><path
         d="m 0,0 c 0.089,0.89 0.979,1.69 1.778,1.69 h 7.918 c 0.801,0 1.423,-0.8 1.334,-1.69 L 8.429,-17.666 c 1.957,1.512 5.337,2.936 8.272,2.936 10.141,0 13.699,-8.719 12.454,-17.703 l -2.402,-17.08 c -0.089,-0.889 -0.979,-1.69 -1.779,-1.69 h -7.651 c -0.888,0 -1.334,0.801 -1.244,1.69 l 2.401,17.258 c 0.712,4.893 -1.067,7.917 -4.981,7.917 -4.359,0 -6.672,-4.804 -6.672,-4.804 L 3.98,-49.513 c -0.177,-0.978 -0.711,-1.69 -1.957,-1.69 h -7.828 c -0.8,0 -1.334,0.801 -1.245,1.69 z"
         style="fill:#000000;fill-opacity:1;fill-rule:nonzero;stroke:none"
         id="path269" /></g>
        <g
                id="g514"
                transform="translate(13,-20)"><g
         id="g271"
         transform="translate(185.0752,391.4346)"><path
           d="m 0,0 h -114.596 c -20.349,0 -36.845,16.497 -36.845,36.847 v 114.594 c 0,20.351 16.496,36.847 36.845,36.847 H 0 c 20.35,0 36.846,-16.496 36.846,-36.847 V 36.847 C 36.846,16.497 20.35,0 0,0"
           style="fill:#000000;fill-opacity:1;fill-rule:nonzero;stroke:none"
           id="path273" /></g>
            <g
                    id="g275"><g
           id="g277"><g
             id="g283"><g
               id="g285"><path
                 d="m 131.193,544.614 c -7.982,-0.931 -14.596,-3.995 -19.127,-8.859 v 0 c -2.791,-2.997 -4.773,-6.702 -5.681,-10.513 v 0 c -1.796,-0.323 -3.549,-0.694 -5.237,-1.129 v 0 C 92.42,521.861 87.006,517.636 86.667,512.81 v 0 c -0.171,-2.429 0.521,-5.909 4.788,-8.695 v 0 c 5.408,-3.529 15.155,-4.717 22.788,-4.717 v 0 c 5.037,0 9.153,0.518 10.49,1.221 v 0 c 1.187,0.624 1.338,1.632 1.348,2.036 v 0 c 0.045,1.911 -1.715,2.702 -4.153,3.797 v 0 c -4.683,2.102 -12.522,5.62 -11.897,15.141 v 0 c 0,0.008 10e-4,0.017 10e-4,0.025 v 0 c 3.581,0.539 7.312,0.938 10.971,1.33 v 0 c 11.229,1.2 21.835,2.333 28.436,7.164 v 0 c 2.412,1.765 3.231,4.399 2.192,7.046 v 0 c -1.601,4.082 -7.602,7.696 -16.414,7.696 v 0 c -1.283,0 -2.627,-0.077 -4.024,-0.24 m 0.482,-4.139 c 1.228,0.143 2.394,0.209 3.497,0.209 v 0 c 7.209,0 11.699,-2.803 12.58,-5.048 v 0 c 0.227,-0.577 0.343,-1.344 -0.775,-2.161 v 0 c -5.696,-4.169 -15.762,-5.244 -26.417,-6.383 v 0 c -3.209,-0.344 -6.472,-0.692 -9.666,-1.137 v 0 c 2.164,6.499 8.415,13.077 20.781,14.52 M 93.389,507.839 c -2.471,1.754 -2.646,3.51 -2.565,4.679 v 0 c 0.165,2.346 3.744,5.593 11.366,7.56 v 0 c 1.174,0.303 2.392,0.574 3.64,0.819 v 0 c -0.2,-10.06 7.062,-14.731 12.144,-17.208 v 0 c -1.126,-0.06 -2.392,-0.095 -3.746,-0.095 v 0 c -6.927,0 -16.165,0.928 -20.839,4.245"
                 style="fill:url(#linearGradient295);stroke:none"
                 id="path297" /></g></g></g></g>
            <g
                    id="g299"><g
           id="g301"><g
             id="g307"><g
               id="g309"><path
                 d="m 133.363,516.437 c -1.187,-0.625 -1.338,-1.632 -1.348,-2.036 v 0 c -0.045,-1.91 1.715,-2.702 4.153,-3.796 v 0 c 4.684,-2.102 12.521,-5.621 11.897,-15.141 v 0 c -0.001,-0.009 -0.001,-0.018 -0.002,-0.026 v 0 c -3.581,-0.54 -7.311,-0.938 -10.971,-1.329 v 0 c -11.228,-1.201 -21.834,-2.334 -28.435,-7.164 v 0 c -2.411,-1.765 -3.231,-4.399 -2.192,-7.047 v 0 c 1.602,-4.082 7.601,-7.696 16.414,-7.696 v 0 c 1.283,0 2.627,0.077 4.025,0.239 v 0 c 7.981,0.932 14.595,3.996 19.126,8.861 v 0 c 2.791,2.996 4.773,6.701 5.68,10.512 v 0 c 1.797,0.324 3.551,0.694 5.237,1.13 v 0 c 8.729,2.25 14.143,6.476 14.481,11.302 v 0 c 0.171,2.429 -0.52,5.909 -4.788,8.695 v 0 c -5.406,3.529 -15.155,4.717 -22.787,4.717 v 0 c -5.038,0 -9.154,-0.517 -10.49,-1.221 m 6.759,-3.071 c 6.887,0.367 18.997,-0.184 24.585,-4.15 v 0 c 2.471,-1.753 2.646,-3.509 2.564,-4.678 v 0 c -0.164,-2.345 -3.743,-5.593 -11.364,-7.559 v 0 c -1.175,-0.303 -2.392,-0.574 -3.641,-0.819 v 0 c 0.201,10.059 -7.063,14.73 -12.144,17.206 m -29.778,-31.945 c -0.225,0.576 -0.343,1.343 0.774,2.161 v 0 c 5.698,4.168 15.762,5.244 26.418,6.383 v 0 c 3.209,0.342 6.472,0.692 9.665,1.136 v 0 c -2.163,-6.5 -8.415,-13.077 -20.781,-14.52 v 0 c -1.227,-0.144 -2.393,-0.209 -3.496,-0.209 v 0 c -7.21,0 -11.698,2.802 -12.58,5.049"
                 style="fill:url(#linearGradient319);stroke:none"
                 id="path321" /></g></g></g></g>
            <g
                    id="g323"><g
           id="g325"
           clip-path="url(#clipPath329)"><g
             id="g331"
             transform="translate(66.0781,436.4209)"><path
               d="M 0,0 1.755,2.711 C 1.968,3.084 2.606,3.243 2.979,2.978 3.616,2.552 5.105,1.967 6.807,1.967 c 0.958,0 1.701,0.479 1.701,1.223 0,1.063 -0.531,1.596 -2.871,2.978 -2.658,1.489 -4.307,3.137 -4.307,6.168 0,3.404 2.021,6.648 8.029,6.648 2.925,0 5.211,-1.064 6.116,-1.755 0.425,-0.319 0.637,-1.011 0.265,-1.542 l -1.807,-2.659 c -0.267,-0.372 -0.852,-0.585 -1.383,-0.213 -0.479,0.266 -1.914,0.798 -3.563,0.798 -1.117,0 -1.702,-0.425 -1.702,-1.223 0,-0.798 0.639,-1.276 2.128,-2.074 3.191,-1.755 5.583,-3.35 5.583,-6.753 0,-3.669 -2.818,-6.914 -8.402,-6.914 -3.456,0 -5.636,1.33 -6.54,2.075 C -0.318,-0.958 -0.266,-0.425 0,0"
               style="fill:#ffffff;fill-opacity:1;fill-rule:nonzero;stroke:none"
               id="path333" /></g><g
                    id="g335"
                    transform="translate(83.4121,453.7563)"><path
               d="M 0,0 C -0.105,0.691 0.267,1.117 0.904,1.117 H 4.999 C 5.318,1.117 5.69,0.85 5.743,0.478 L 7.18,-8.508 h 0.052 l 6.116,9.677 c 0.213,0.319 0.372,0.479 0.85,0.479 h 0.426 c 0.372,0 0.585,-0.212 0.691,-0.479 l 3.138,-9.677 h 0.053 L 22.6,0.478 c 0.266,0.585 0.692,0.639 1.223,0.639 h 3.882 c 0.691,0 0.904,-0.533 0.585,-1.223 l -9.04,-19.995 c -0.159,-0.318 -0.479,-0.585 -0.957,-0.585 H 18.08 c -0.372,0 -0.585,0.213 -0.691,0.479 L 13.082,-8.189 H 13.028 L 5.212,-20.207 C 5.053,-20.473 4.733,-20.686 4.36,-20.686 H 4.148 c -0.425,0 -0.691,0.267 -0.744,0.585 z"
               style="fill:#ffffff;fill-opacity:1;fill-rule:nonzero;stroke:none"
               id="path337" /></g><g
                    id="g339"
                    transform="translate(113.1367,453.4902)"><path
               d="M 0,0 C -0.213,0.691 0.053,1.383 0.797,1.383 H 5.37 c 0.266,0 0.639,-0.267 0.745,-0.586 L 8.88,-11.805 h 0.054 l 6.22,12.602 c 0.213,0.479 0.639,0.586 1.065,0.586 h 4.732 c 0.744,0 1.01,-0.692 0.585,-1.383 L 6.719,-26.549 C 6.506,-26.868 6.24,-27.187 5.814,-27.187 H 0.869 c -0.691,0 -0.957,0.532 -0.478,1.276 l 4.448,7.512 z"
               style="fill:#ffffff;fill-opacity:1;fill-rule:nonzero;stroke:none"
               id="path341" /></g><g
                    id="g343"
                    transform="translate(137.915,449.2891)"><path
               d="m 0,0 h -1.915 c -0.479,0 -0.797,0.479 -0.744,1.01 l 0.478,3.564 c 0.107,0.584 0.533,1.01 1.011,1.01 h 1.968 l 0.797,5.902 c 0.106,0.532 0.585,1.011 1.063,1.011 l 4.627,0.052 c 0.479,0 0.797,-0.478 0.691,-1.009 L 7.179,5.584 h 3.828 c 0.532,0 0.851,-0.426 0.745,-1.01 L 11.272,1.01 C 11.166,0.479 10.741,0 10.21,0 H 6.381 L 5.158,-8.402 c -0.213,-1.489 0.531,-1.701 1.169,-1.701 0.745,0 1.596,0.425 2.128,0.638 0.531,0.213 0.903,-0.054 1.01,-0.585 l 0.532,-3.51 c 0.107,-0.531 -0.213,-0.957 -0.798,-1.276 -0.426,-0.266 -3.51,-1.383 -5.902,-1.383 -3.67,0 -5.212,2.553 -4.626,6.861 z"
               style="fill:#ffffff;fill-opacity:1;fill-rule:nonzero;stroke:none"
               id="path345" /></g><g
                    id="g347"
                    transform="translate(161.2041,455.4048)"><path
               d="M 0,0 C 3.244,0 5.903,-1.702 7.232,-3.776 7.552,-4.254 7.286,-4.839 6.807,-5.265 L 4.68,-7.232 C 4.201,-7.658 3.616,-7.445 3.351,-7.179 2.766,-6.647 1.915,-5.744 0.16,-5.744 c -2.553,0 -5.158,-2.605 -5.158,-6.274 0,-2.552 1.383,-4.573 3.403,-4.573 1.862,0 3.137,1.329 3.776,2.021 0.319,0.372 0.85,0.531 1.329,0.052 l 2.074,-2.02 c 0.425,-0.425 0.531,-0.957 0.159,-1.489 -1.86,-2.446 -4.626,-4.307 -7.976,-4.307 -5.264,0 -9.093,4.201 -9.093,9.89 C -11.326,-5.158 -6.114,0 0,0"
               style="fill:#ffffff;fill-opacity:1;fill-rule:nonzero;stroke:none"
               id="path349" /></g><g
                    id="g351"
                    transform="translate(172.1182,464.2104)"><path
               d="M 0,0 C 0.053,0.532 0.585,1.01 1.063,1.01 H 5.796 C 6.274,1.01 6.646,0.532 6.594,0 L 5.038,-10.561 c 1.17,0.904 3.191,1.755 4.945,1.755 6.063,0 8.19,-5.211 7.446,-10.582 l -1.437,-10.21 c -0.053,-0.532 -0.585,-1.01 -1.063,-1.01 h -4.574 c -0.531,0 -0.796,0.478 -0.744,1.01 l 1.436,10.316 c 0.426,2.925 -0.638,4.733 -2.978,4.733 -2.605,0 -3.988,-2.871 -3.988,-2.871 L 2.38,-29.598 c -0.107,-0.585 -0.426,-1.01 -1.17,-1.01 h -4.68 c -0.478,0 -0.798,0.478 -0.744,1.01 z"
               style="fill:#ffffff;fill-opacity:1;fill-rule:nonzero;stroke:none"
               id="path353" /></g></g></g></g></g></svg>
