<svg xmlns="http://www.w3.org/2000/svg" version="1.1"
     width="512" height="512" x="0" y="0" viewBox="0 0 24 24"
     style="enable-background:new 0 0 512 512" xml:space="preserve" class=""><g><path d="M20.97 5.914a1 1 0 0 0-.644-.846l-7.869-2.952a1.003 1.003 0 0 0-.284-.092.978.978 0 0 0-.643.096L3.674 5.068a1 1 0 0 0-.644.846c-.01.116-.94 11.617 8.407 15.922a.99.99 0 0 0 .63.161c.162-.01.323-.06.467-.147 9.378-4.295 8.447-15.82 8.436-15.936zM16.723 9.69l-4.28 4.475a1 1 0 0 1-.711.309h-.011a1 1 0 0 1-.707-.293l-2-2a1 1 0 1 1 1.414-1.414l1.277 1.277 3.573-3.736a1 1 0 1 1 1.445 1.382z" fill="#ffffff" data-original="#000000" class=""></path></g></svg>
